<svg width="48" height="48" viewBox="0 0 48 48" fill="none" xmlns="http://www.w3.org/2000/svg">
<circle cx="24" cy="24" r="24" fill="#008080"/>
<path d="M18.5974 14.3072C18.429 14.158 18.1727 14.1746 18.0234 14.3417C17.8742 14.51 17.8908 14.7664 18.0579 14.9156L21.333 17.8069C21.3828 17.8502 21.4402 17.9051 21.5052 17.9701C22.023 18.4892 22.2143 19.007 22.1825 19.4942C22.1493 19.9954 21.8866 20.4852 21.5001 20.9226C21.453 20.9762 21.3917 21.0399 21.3178 21.1139C21.2438 21.1879 21.18 21.2491 21.1265 21.2963C20.689 21.6815 20.1992 21.9455 19.698 21.9786C19.2121 22.0105 18.6943 21.8192 18.1753 21.3014C18.1102 21.2363 18.0554 21.179 18.012 21.1292L15.122 17.8528C14.9728 17.6844 14.7164 17.6691 14.5481 17.8183C14.3797 17.9676 14.3644 18.2239 14.5136 18.3923L17.4049 21.6674C17.4801 21.7529 17.5452 21.823 17.6 21.8779C18.3027 22.5806 19.0387 22.8382 19.7503 22.791C20.448 22.7451 21.101 22.4033 21.6659 21.9047C21.7565 21.8256 21.833 21.7542 21.8955 21.6904C21.9593 21.6266 22.0307 21.5501 22.1098 21.4608C22.6084 20.8958 22.9503 20.2429 22.9962 19.5452C23.0421 18.8336 22.7857 18.0977 22.083 17.3949C22.0281 17.3401 21.958 17.275 21.8726 17.1998L18.5974 14.3072Z" fill="white"/>
<path d="M24.8059 26.2143L26.4218 24.5984C26.5813 24.439 26.8402 24.439 26.9996 24.5984L33.5472 31.146C33.8495 31.4483 34 31.8462 34 32.2441C34 32.642 33.8495 33.0399 33.5472 33.3422C33.245 33.6445 32.847 33.795 32.4491 33.795C32.0512 33.795 31.6533 33.6445 31.351 33.3422L24.8034 26.7932C24.644 26.6338 24.644 26.3749 24.8034 26.2154L24.8059 26.2143ZM26.71 25.4644L25.6694 26.5051L31.9278 32.7635C32.0707 32.9064 32.2594 32.9778 32.4482 32.9778C32.6369 32.9778 32.8257 32.9064 32.9685 32.7635C33.1113 32.6207 33.1828 32.4319 33.1828 32.2432C33.1828 32.0544 33.1113 31.8657 32.9685 31.7228L26.71 25.4644Z" fill="white"/>
<path d="M21.9682 21.1854C21.8088 21.0259 21.5499 21.0259 21.3905 21.1854C21.231 21.3448 21.231 21.6037 21.3905 21.7631L25.5609 25.9336C25.7204 26.093 25.9793 26.093 26.1387 25.9336C26.2981 25.7742 26.2981 25.5153 26.1387 25.3558L24.2958 23.5142L21.9682 21.1854Z" fill="white"/>
<path d="M22.3306 26.5049L21.2899 25.4642L15.0315 31.7227C14.8887 31.8655 14.8172 32.0543 14.8172 32.243C14.8172 32.4317 14.8886 32.6205 15.0315 32.7633C15.1743 32.9062 15.3631 32.9776 15.5518 32.9776C15.7406 32.9776 15.9293 32.9062 16.0722 32.7633L22.3306 26.5049ZM21.5781 24.5982L23.1966 26.2166C23.356 26.3761 23.356 26.635 23.1966 26.7944L16.649 33.342C16.3467 33.6443 15.9488 33.7948 15.5509 33.7948C15.1529 33.7948 14.755 33.6443 14.4528 33.342C14.1505 33.0398 14 32.6418 14 32.2439C14 31.846 14.1505 31.4481 14.4528 31.1458L21.0004 24.5982C21.1611 24.4388 21.4187 24.4388 21.5781 24.5982Z" fill="white"/>
<path d="M25.6478 22.7236C25.8072 22.5642 25.8072 22.3052 25.6478 22.1458C25.4884 21.9864 25.2295 21.9864 25.0701 22.1458L23.7041 23.5143L21.8612 25.3572C21.7018 25.5166 21.7018 25.7756 21.8612 25.935C22.0206 26.0944 22.2795 26.0944 22.439 25.935L24.2819 24.0921L25.6478 22.7236Z" fill="white"/>
<path d="M16.0699 16.5635C15.9104 16.4041 15.6515 16.4041 15.4921 16.5635C15.3327 16.723 15.3327 16.9819 15.4921 17.1413L20.3933 22.0425C20.5527 22.2019 20.8116 22.2019 20.971 22.0425C21.1304 21.883 21.1304 21.6241 20.971 21.4647L16.0699 16.5635Z" fill="white"/>
<path d="M17.3464 15.2867C17.187 15.1273 16.9281 15.1273 16.7687 15.2867C16.6093 15.4462 16.6093 15.7051 16.7687 15.8645L21.6698 20.7657C21.8293 20.9251 22.0882 20.9251 22.2476 20.7657C22.407 20.6062 22.407 20.3473 22.2476 20.1879L17.3464 15.2867Z" fill="white"/>
<path d="M31.7747 16.0151C31.1664 15.4067 30.2838 15.1797 29.3477 15.3034C28.3746 15.4322 27.3467 15.9373 26.4947 16.7879C25.644 17.6386 25.139 18.6665 25.0102 19.6409C24.8865 20.5771 25.1147 21.4609 25.7218 22.068C26.3302 22.6763 27.2127 22.9033 28.1489 22.7796C29.122 22.6508 30.1499 22.1458 31.0019 21.2951C31.8525 20.4445 32.3576 19.4165 32.4864 18.4421C32.6101 17.506 32.3818 16.6221 31.7747 16.0151ZM29.2418 14.4961C30.4254 14.3405 31.5554 14.6415 32.3512 15.4374C33.147 16.2332 33.4493 17.3632 33.2924 18.5467C33.1419 19.6933 32.5578 20.8921 31.5783 21.8716C30.5988 22.8511 29.4 23.4339 28.2534 23.5857C27.0699 23.7413 25.9399 23.4403 25.1441 22.6445C24.3483 21.8486 24.046 20.7187 24.2028 19.5351C24.3533 18.3886 24.9374 17.1897 25.9169 16.2102C26.8977 15.2307 28.0953 14.6466 29.2418 14.4961Z" fill="white"/>
</svg>
